<svg width="104" height="36" viewBox="0 0 104 36" fill="none" xmlns="http://www.w3.org/2000/svg">
<path d="M18.0629 11.416C21.6791 11.4162 24.5903 14.3222 24.5903 17.8818C24.59 21.4412 21.679 24.3465 18.0629 24.3467C14.4467 24.3467 11.5348 21.4414 11.5346 17.8818C11.5346 14.3221 14.4466 11.416 18.0629 11.416Z" stroke="#FDFDFD" stroke-width="3"/>
<rect x="0.75" y="16.25" width="6.5" height="1.5" rx="0.75" fill="#FDFDFD" stroke="#FDFDFD" stroke-width="1.5"/>
<rect x="28.75" y="16.25" width="6.5" height="1.5" rx="0.75" fill="#FDFDFD" stroke="#FDFDFD" stroke-width="1.5"/>
<rect x="1.0648" width="6.5" height="1.5" rx="0.75" transform="matrix(0.709867 -0.704336 0.709867 0.704336 4.18003 28.8962)" fill="#FDFDFD" stroke="#FDFDFD" stroke-width="1.5"/>
<rect x="1.0647" width="6.50014" height="1.49986" rx="0.749932" transform="matrix(0.709867 -0.704336 0.709867 0.704336 24.3089 10.8847)" fill="#FDFDFD" stroke="#FDFDFD" stroke-width="1.49986"/>
<mask id="path-6-inside-1_150_60" fill="white">
<path d="M5.0648 7.66954C4.47673 7.08605 4.47673 6.14002 5.0648 5.55653V5.55653C5.65287 4.97304 6.60633 4.97304 7.1944 5.55653L10.7437 9.07821C11.3318 9.6617 11.3318 10.6077 10.7437 11.1912V11.1912C10.1557 11.7747 9.20221 11.7747 8.61413 11.1912L5.0648 7.66954Z"/>
</mask>
<path d="M5.0648 7.66954C4.47673 7.08605 4.47673 6.14002 5.0648 5.55653V5.55653C5.65287 4.97304 6.60633 4.97304 7.1944 5.55653L10.7437 9.07821C11.3318 9.6617 11.3318 10.6077 10.7437 11.1912V11.1912C10.1557 11.7747 9.20221 11.7747 8.61413 11.1912L5.0648 7.66954Z" fill="#FDFDFD"/>
<path d="M7.1944 5.55653L5.0648 7.66954L8.61413 11.1912L10.7437 9.07821L12.8733 6.9652L9.324 3.44352L7.1944 5.55653ZM8.61413 11.1912L10.7437 9.07821L7.1944 5.55653L5.0648 7.66954L2.9352 9.78255L6.48453 13.3042L8.61413 11.1912ZM10.7437 11.1912L8.61413 9.07821C9.20221 8.49472 10.1557 8.49472 10.7437 9.07821L8.61413 11.1912L6.48453 13.3042C8.24875 15.0547 11.1091 15.0547 12.8733 13.3042L10.7437 11.1912ZM10.7437 9.07821L8.61413 11.1912C8.02606 10.6077 8.02606 9.6617 8.61413 9.07821L10.7437 11.1912L12.8733 13.3042C14.6376 11.5538 14.6376 8.71568 12.8733 6.9652L10.7437 9.07821ZM5.0648 5.55653L7.1944 7.66954C6.60633 8.25303 5.65287 8.25303 5.0648 7.66954L7.1944 5.55653L9.324 3.44352C7.55978 1.69305 4.69942 1.69305 2.9352 3.44352L5.0648 5.55653ZM5.0648 5.55653L2.9352 3.44352C1.17098 5.194 1.17098 8.03208 2.9352 9.78255L5.0648 7.66954L7.1944 5.55653C7.78247 6.14002 7.78247 7.08605 7.1944 7.66954L5.0648 5.55653Z" fill="#FDFDFD" mask="url(#path-6-inside-1_150_60)"/>
<rect x="1.0648" width="1.5" height="6.5" rx="0.75" transform="matrix(0.709867 -0.704336 0.709867 0.704336 24.3089 25.363)" fill="#FDFDFD" stroke="#FDFDFD" stroke-width="1.5"/>
<rect x="16.75" y="0.75" width="1.5" height="6.5" rx="0.75" fill="#FDFDFD" stroke="#FDFDFD" stroke-width="1.5"/>
<rect x="16.75" y="28.75" width="1.5" height="6.5" rx="0.75" fill="#FDFDFD" stroke="#FDFDFD" stroke-width="1.5"/>
<mask id="path-11-inside-2_150_60" fill="white">
<path d="M81.4618 0.807029C81.7223 0.412147 81.3734 -0.117824 80.9217 0.0229458C73.4352 2.3565 68.0001 9.34139 68 17.5967C68 27.7619 76.2406 36.0029 86.4053 36.0029C94.6588 36.0029 101.642 30.5692 103.977 23.0841C104.118 22.6325 103.588 22.2835 103.193 22.5439C100.718 24.1758 97.7552 25.1269 94.5693 25.1269C85.9034 25.1269 78.878 18.101 78.8779 9.43456C78.8779 6.24729 79.829 3.28244 81.4618 0.807029Z"/>
</mask>
<path d="M68 17.5967L65 17.5967L65 17.5966L68 17.5967ZM86.4053 36.0029L86.4053 39.0029H86.4053V36.0029ZM94.5693 25.1269L94.5693 28.1269L94.5693 28.1269L94.5693 25.1269ZM78.8779 9.43456L75.8779 9.4346V9.43456H78.8779ZM103.193 22.5439L104.844 25.0483L103.193 22.5439ZM81.4618 0.807029L78.9576 -0.844812L81.4618 0.807029ZM80.9217 0.0229458L81.8145 2.88704C75.5454 4.84111 71.0001 10.6917 71 17.5967L68 17.5967L65 17.5966C65.0001 7.99108 71.325 -0.128111 80.029 -2.84115L80.9217 0.0229458ZM68 17.5967H71C71 26.1052 77.8976 33.0029 86.4053 33.0029V36.0029V39.0029C74.5836 39.0029 65 29.4186 65 17.5967H68ZM86.4053 36.0029L86.4052 33.0029C93.3085 33.0029 99.1579 28.459 101.113 22.1909L103.977 23.0841L106.841 23.9773C104.127 32.6794 96.0091 39.0028 86.4053 39.0029L86.4053 36.0029ZM103.193 22.5439L104.844 25.0483C101.896 26.9929 98.3612 28.1269 94.5693 28.1269V25.1269V22.1269C97.1491 22.1269 99.5408 21.3587 101.541 20.0395L103.193 22.5439ZM94.5693 25.1269L94.5693 28.1269C84.2463 28.1269 75.878 19.7576 75.8779 9.4346L78.8779 9.43456L81.8779 9.43453C81.878 16.4443 87.5604 22.1269 94.5693 22.1269L94.5693 25.1269ZM78.8779 9.43456H75.8779C75.8779 5.64163 77.0117 2.10524 78.9576 -0.844812L81.4618 0.807029L83.9661 2.45887C82.6464 4.45965 81.8779 6.85296 81.8779 9.43456H78.8779ZM103.977 23.0841L101.113 22.1909C100.737 23.3959 101.325 24.5039 102.104 25.0314C102.845 25.5327 103.932 25.6501 104.844 25.0483L103.193 22.5439L101.541 20.0395C102.849 19.1773 104.398 19.3389 105.467 20.0625C106.575 20.8123 107.357 22.3207 106.841 23.9773L103.977 23.0841ZM80.9217 0.0229458L80.029 -2.84115C81.6858 -3.35755 83.194 -2.57493 83.9436 -1.467C84.6669 -0.397849 84.8284 1.15161 83.9661 2.45887L81.4618 0.807029L78.9576 -0.844812C78.3558 0.0675631 78.473 1.1546 78.9741 1.89523C79.5014 2.67465 80.6093 3.26268 81.8145 2.88704L80.9217 0.0229458Z" fill="#FDFDFD" mask="url(#path-11-inside-2_150_60)"/>
<line x1="52.5" y1="8" x2="52.5" y2="28" stroke="#FDFDFD"/>
</svg>
