<svg width="104" height="36" viewBox="0 0 104 36" fill="none" xmlns="http://www.w3.org/2000/svg">
<path d="M18.063 11.416C21.6792 11.4162 24.5903 14.3222 24.5903 17.8818C24.5901 21.4412 21.6791 24.3465 18.063 24.3467C14.4468 24.3467 11.5349 21.4414 11.5347 17.8818C11.5347 14.3221 14.4466 11.416 18.063 11.416Z" stroke="#303030" stroke-width="3"/>
<rect x="0.75" y="16.25" width="6.5" height="1.5" rx="0.75" fill="#303030" stroke="#303030" stroke-width="1.5"/>
<rect x="28.75" y="16.25" width="6.5" height="1.5" rx="0.75" fill="#303030" stroke="#303030" stroke-width="1.5"/>
<rect x="1.0648" width="6.5" height="1.5" rx="0.75" transform="matrix(0.709867 -0.704336 0.709867 0.704336 4.18003 28.8962)" fill="#303030" stroke="#303030" stroke-width="1.5"/>
<rect x="1.0647" width="6.50014" height="1.49986" rx="0.749932" transform="matrix(0.709867 -0.704336 0.709867 0.704336 24.3089 10.8847)" fill="#303030" stroke="#303030" stroke-width="1.49986"/>
<mask id="path-6-inside-1_150_61" fill="white">
<path d="M5.0648 7.66954C4.47673 7.08605 4.47673 6.14002 5.0648 5.55653V5.55653C5.65287 4.97304 6.60633 4.97304 7.1944 5.55653L10.7437 9.07821C11.3318 9.6617 11.3318 10.6077 10.7437 11.1912V11.1912C10.1557 11.7747 9.20221 11.7747 8.61413 11.1912L5.0648 7.66954Z"/>
</mask>
<path d="M5.0648 7.66954C4.47673 7.08605 4.47673 6.14002 5.0648 5.55653V5.55653C5.65287 4.97304 6.60633 4.97304 7.1944 5.55653L10.7437 9.07821C11.3318 9.6617 11.3318 10.6077 10.7437 11.1912V11.1912C10.1557 11.7747 9.20221 11.7747 8.61413 11.1912L5.0648 7.66954Z" fill="#303030"/>
<path d="M7.1944 5.55653L5.0648 7.66954L8.61413 11.1912L10.7437 9.07821L12.8733 6.9652L9.324 3.44352L7.1944 5.55653ZM8.61413 11.1912L10.7437 9.07821L7.1944 5.55653L5.0648 7.66954L2.9352 9.78255L6.48453 13.3042L8.61413 11.1912ZM10.7437 11.1912L8.61413 9.07821C9.20221 8.49472 10.1557 8.49472 10.7437 9.07821L8.61413 11.1912L6.48453 13.3042C8.24875 15.0547 11.1091 15.0547 12.8733 13.3042L10.7437 11.1912ZM10.7437 9.07821L8.61413 11.1912C8.02606 10.6077 8.02606 9.6617 8.61413 9.07821L10.7437 11.1912L12.8733 13.3042C14.6376 11.5538 14.6376 8.71568 12.8733 6.9652L10.7437 9.07821ZM5.0648 5.55653L7.1944 7.66954C6.60633 8.25303 5.65287 8.25303 5.0648 7.66954L7.1944 5.55653L9.324 3.44352C7.55978 1.69305 4.69942 1.69305 2.9352 3.44352L5.0648 5.55653ZM5.0648 5.55653L2.9352 3.44352C1.17098 5.194 1.17098 8.03208 2.9352 9.78255L5.0648 7.66954L7.1944 5.55653C7.78247 6.14002 7.78247 7.08605 7.1944 7.66954L5.0648 5.55653Z" fill="#303030" mask="url(#path-6-inside-1_150_61)"/>
<rect x="1.0648" width="1.5" height="6.5" rx="0.75" transform="matrix(0.709867 -0.704336 0.709867 0.704336 24.3089 25.363)" fill="#303030" stroke="#303030" stroke-width="1.5"/>
<rect x="16.75" y="0.75" width="1.5" height="6.5" rx="0.75" fill="#303030" stroke="#303030" stroke-width="1.5"/>
<rect x="16.75" y="28.75" width="1.5" height="6.5" rx="0.75" fill="#303030" stroke="#303030" stroke-width="1.5"/>
<mask id="path-11-inside-2_150_61" fill="white">
<path d="M81.4618 0.806785C81.7223 0.411902 81.3734 -0.118068 80.9217 0.0227016C73.4352 2.35625 68.0001 9.34115 68 17.5964C68 27.7617 76.2406 36.0027 86.4053 36.0027C94.6588 36.0026 101.642 30.569 103.977 23.0838C104.118 22.6322 103.588 22.2832 103.193 22.5436C100.718 24.1756 97.7552 25.1267 94.5693 25.1267C85.9034 25.1267 78.878 18.1007 78.8779 9.43432C78.8779 6.24705 79.829 3.2822 81.4618 0.806785Z"/>
</mask>
<path d="M68 17.5964L65 17.5964L65 17.5964L68 17.5964ZM86.4053 36.0027L86.4053 39.0027H86.4053V36.0027ZM94.5693 25.1267L94.5693 28.1267L94.5693 28.1267L94.5693 25.1267ZM78.8779 9.43432L75.8779 9.43435V9.43432H78.8779ZM103.977 23.0838L106.841 23.9771L103.977 23.0838ZM103.193 22.5436L104.844 25.0481L103.193 22.5436ZM80.9217 0.0227016L81.8145 2.88679L80.9217 0.0227016ZM81.4618 0.806785L83.9661 2.45863L81.4618 0.806785ZM80.9217 0.0227016L81.8145 2.88679C75.5454 4.84086 71.0001 10.6915 71 17.5965L68 17.5964L65 17.5964C65.0001 7.99083 71.325 -0.128355 80.029 -2.84139L80.9217 0.0227016ZM68 17.5964H71C71 26.105 77.8976 33.0027 86.4053 33.0027V36.0027V39.0027C74.5836 39.0027 65 29.4184 65 17.5964H68ZM86.4053 36.0027L86.4052 33.0027C93.3085 33.0026 99.1579 28.4587 101.113 22.1906L103.977 23.0838L106.841 23.9771C104.127 32.6792 96.0091 39.0026 86.4053 39.0027L86.4053 36.0027ZM103.193 22.5436L104.844 25.0481C101.896 26.9927 98.3612 28.1267 94.5693 28.1267V25.1267V22.1267C97.1491 22.1267 99.5408 21.3584 101.541 20.0392L103.193 22.5436ZM94.5693 25.1267L94.5693 28.1267C84.2463 28.1267 75.878 19.7574 75.8779 9.43435L78.8779 9.43432L81.8779 9.43428C81.878 16.4441 87.5604 22.1267 94.5693 22.1267L94.5693 25.1267ZM78.8779 9.43432H75.8779C75.8779 5.64138 77.0117 2.10499 78.9576 -0.845056L81.4618 0.806785L83.9661 2.45863C82.6464 4.4594 81.8779 6.85271 81.8779 9.43432H78.8779ZM103.977 23.0838L101.113 22.1906C100.737 23.3956 101.325 24.5037 102.104 25.0312C102.845 25.5325 103.932 25.6498 104.844 25.0481L103.193 22.5436L101.541 20.0392C102.849 19.177 104.398 19.3387 105.467 20.0623C106.575 20.8121 107.357 22.3204 106.841 23.9771L103.977 23.0838ZM80.9217 0.0227016L80.029 -2.84139C81.6858 -3.3578 83.194 -2.57517 83.9436 -1.46724C84.6669 -0.398093 84.8284 1.15137 83.9661 2.45863L81.4618 0.806785L78.9576 -0.845056C78.3558 0.0673189 78.473 1.15435 78.9741 1.89499C79.5014 2.6744 80.6093 3.26243 81.8145 2.88679L80.9217 0.0227016Z" fill="#303030" mask="url(#path-11-inside-2_150_61)"/>
<line x1="52.5" y1="8" x2="52.5" y2="28" stroke="#303030"/>
</svg>
